<?xml version="1.0" encoding="iso-8859-1"?>
<!-- Generator: Adobe Illustrator 16.0.0, SVG Export Plug-In . SVG Version: 6.00 Build 0)  -->
<!DOCTYPE svg PUBLIC "-//W3C//DTD SVG 1.1//EN" "http://www.w3.org/Graphics/SVG/1.1/DTD/svg11.dtd">
<svg version="1.1" id="Capa_1" xmlns="http://www.w3.org/2000/svg" xmlns:xlink="http://www.w3.org/1999/xlink" x="0px" y="0px"
	 width="472.617px" height="472.617px" viewBox="0 0 472.617 472.617" style="enable-background:new 0 0 472.617 472.617;"
	 xml:space="preserve">
<g>
	<g id="Layer_2_19_">
		<g>
			<path d="M453.652,157.878c-3.656-9.651-14.438-14.515-24.093-10.859c-9.648,3.647-14.511,14.436-10.857,24.088
				c17.961,47.441,16.837,99.245-3.163,145.879c-20.531,47.865-58.47,84.874-106.837,104.206
				c-48.364,19.33-101.361,18.674-149.227-1.854c-13.88-5.952-26.834-13.366-38.719-22.068
				c-29.116-21.332-51.765-50.429-65.491-84.771c-19.333-48.363-18.679-101.358,1.85-149.231
				c20.53-47.866,58.477-84.876,106.842-104.212c46.279-18.496,96.796-18.641,143.004-0.635l-13.242,22.365
				c-3.638,6.144-0.842,10.244,6.202,9.104l62.911-10.156c7.048-1.139,10.868-7.582,8.474-14.307l-21.34-60.051
				c-2.39-6.726-7.324-7.209-10.957-1.062l-12.77,21.561c-56.603-23.77-119.088-24.33-176.159-1.518
				C92.45,47.396,47.238,91.495,22.769,148.538c-24.465,57.041-25.25,120.202-2.21,177.836
				c16.361,40.929,43.344,75.597,78.048,101.015c14.158,10.371,29.605,19.205,46.137,26.292
				c57.044,24.461,120.195,25.25,177.827,2.218c57.64-23.034,102.849-67.142,127.312-124.188
				C473.716,276.148,475.055,214.406,453.652,157.878z"/>
			<path d="M228.112,90.917c-8.352,0-15.128,6.771-15.128,15.13v150.745l137.872,71.272c2.219,1.148,4.593,1.693,6.931,1.688
				c5.478,0,10.765-2.979,13.455-8.183c3.833-7.424,0.931-16.549-6.499-20.389l-121.496-62.81V106.047
				C243.246,97.688,236.475,90.917,228.112,90.917z"/>
		</g>
	</g>
</g>
<g>
</g>
<g>
</g>
<g>
</g>
<g>
</g>
<g>
</g>
<g>
</g>
<g>
</g>
<g>
</g>
<g>
</g>
<g>
</g>
<g>
</g>
<g>
</g>
<g>
</g>
<g>
</g>
<g>
</g>
</svg>
